<svg id="Layer_1" data-name="Layer 1" xmlns="http://www.w3.org/2000/svg" viewBox="0 0 895.979 139.998"><defs><style>.cls-1{fill:#fff;}</style></defs><title>tba18_t-rhythm</title><polygon class="cls-1" points="0 0 0 25 49.599 25 49.599 139.998 76.599 139.998 76.599 25 125.998 25 125.998 0 0 0"/><polygon class="cls-1" points="124.999 55.024 174.598 55.024 174.598 139.998 201.597 139.998 201.597 55.024 250.997 55.024 250.997 30.024 124.999 30.024 124.999 55.024"/><polygon class="cls-1" points="249.997 85.048 299.596 85.048 299.596 139.998 326.596 139.998 326.596 85.048 375.995 85.048 375.995 60.048 249.997 60.048 249.997 85.048"/><polygon class="cls-1" points="374.996 115.072 424.595 115.072 424.595 139.998 451.594 139.998 451.594 115.072 500.994 115.072 500.994 90.072 374.996 90.072 374.996 115.072"/><rect class="cls-1" x="499.995" y="120.096" width="125.998" height="19.902"/><path class="cls-1" d="M751.244,101.4c0-17.4-11-29-27.4-33.4,14.4-6,22.4-17,22.4-31.6,0-21.4-18.4-36.4-45-36.4h-69V140h71.6C731.845,140,751.244,125,751.244,101.4Zm-92-76.4h41c11.6,0,19.6,5.4,19.6,15,0,10-6.6,16-19.6,16h-41Zm45,90h-45V80.4h45c12.6,0,20,7.8,20,17.6C724.244,108.2,716.244,115,704.245,115Z"/><path class="cls-1" d="M801.58,0l-56.4,140h30l12-31.6h66.8l12.2,31.6h29.8L839.78,0Zm-5,84,24-62.6L844.78,84Z"/></svg>